<svg width="33" height="32" viewBox="0 0 33 32" fill="none" xmlns="http://www.w3.org/2000/svg">
<path d="M21.4433 28V25.3333C21.4433 23.9188 20.8814 22.5623 19.8812 21.5621C18.881 20.5619 17.5245 20 16.11 20H8.10998C6.69549 20 5.33894 20.5619 4.33875 21.5621C3.33855 22.5623 2.77665 23.9188 2.77665 25.3333V28" stroke="#333" stroke-width="2.66667" stroke-linecap="round" stroke-linejoin="round"/>
<path d="M12.11 14.6667C15.0555 14.6667 17.4433 12.2789 17.4433 9.33333C17.4433 6.38781 15.0555 4 12.11 4C9.16446 4 6.77665 6.38781 6.77665 9.33333C6.77665 12.2789 9.16446 14.6667 12.11 14.6667Z" stroke="#333" stroke-width="2.66667" stroke-linecap="round" stroke-linejoin="round"/>
<path d="M29.4433 28V25.3333C29.4424 24.1516 29.0491 23.0037 28.3251 22.0698C27.6012 21.1358 26.5875 20.4688 25.4433 20.1733" stroke="#333" stroke-width="2.66667" stroke-linecap="round" stroke-linejoin="round"/>
<path d="M21.4433 4.17334C22.5905 4.46707 23.6074 5.13427 24.3335 6.06975C25.0596 7.00523 25.4538 8.15578 25.4538 9.34001C25.4538 10.5242 25.0596 11.6748 24.3335 12.6103C23.6074 13.5457 22.5905 14.2129 21.4433 14.5067" stroke="#333" stroke-width="2.66667" stroke-linecap="round" stroke-linejoin="round"/>
</svg>
